<svg id="svg2" xmlns="http://www.w3.org/2000/svg" xmlns:xlink="http://www.w3.org/1999/xlink" viewBox="0 0 743.32 597.66"><defs><style>.cls-1,.cls-9{fill:none;}.cls-2,.cls-3,.cls-5,.cls-6{stroke:#000;}.cls-2{stroke-width:1.07px;}.cls-3,.cls-6,.cls-8{fill:#fff;}.cls-10,.cls-3,.cls-6{fill-rule:evenodd;}.cls-4{clip-path:url(#clip-path);}.cls-5{stroke-dashoffset:10.2px;stroke-width:1.02px;stroke-dasharray:1.02 1.02;}.cls-7{clip-path:url(#clip-path-2);}.cls-9{stroke:#fff;stroke-width:2px;}.cls-10{fill:#1a1a1a;stroke:#1a1a1a;stroke-linecap:round;stroke-linejoin:round;stroke-width:20px;}.cls-11,.cls-12,.cls-13{opacity:0.6;isolation:isolate;}.cls-11{fill:url(#radial-gradient);}.cls-12{fill:url(#radial-gradient-2);}.cls-13{fill:url(#radial-gradient-3);}</style><clipPath id="clip-path" transform="translate(-1.24 -33.18)"><rect class="cls-1" x="618.75" y="176.46" width="75" height="175"/></clipPath><clipPath id="clip-path-2" transform="translate(-1.24 -33.18)"><rect class="cls-1" x="603.13" y="23.22" width="75" height="175" transform="translate(-9.49 114.27) rotate(-10.12)"/></clipPath><radialGradient id="radial-gradient" cx="608.65" cy="153.84" r="25" gradientTransform="matrix(0.57, 0, 0, -0.62, -306.59, 368.71)" gradientUnits="userSpaceOnUse"><stop offset="0" stop-color="#e6e6e6"/><stop offset="1" stop-color="#e6e6e6" stop-opacity="0"/></radialGradient><radialGradient id="radial-gradient-2" cx="608.65" cy="153.84" r="25" gradientTransform="matrix(0.57, 0, 0, -0.62, -212.54, 369.67)" xlink:href="#radial-gradient"/><radialGradient id="radial-gradient-3" cx="608.65" cy="153.84" r="25" gradientTransform="matrix(0.57, 0, 0, -0.62, -305.62, 272.72)" xlink:href="#radial-gradient"/></defs><rect id="rect2383" class="cls-2" x="17.55" y="193.32" width="674.93" height="403.81"/><rect id="rect2387" x="17.51" y="193.28" width="675" height="100"/><path id="path2395" class="cls-3" d="M18.75,226.46l50,100h75l-50-100Z" transform="translate(-1.24 -33.18)"/><path id="path2397" class="cls-3" d="M168.75,226.46l50,100h75l-50-100Z" transform="translate(-1.24 -33.18)"/><path id="path2399" class="cls-3" d="M318.75,226.46l50,100h75l-50-100Z" transform="translate(-1.24 -33.18)"/><path id="path2401" class="cls-3" d="M468.75,226.46l50,100h75l-50-100Z" transform="translate(-1.24 -33.18)"/><g class="cls-4"><path id="path2411" class="cls-3" d="M618.75,226.46l50,100h75l-50-100Z" transform="translate(-1.24 -33.18)"/></g><g id="g3199"><g id="g3277"><rect id="rect2385" class="cls-5" x="5.49" y="100.27" width="674.98" height="101.87" transform="translate(-22.71 30.43) rotate(-10.28)"/><path id="path3189" class="cls-6" d="M19.63,259.64,51.29,152.41l73.83-13.18L93.47,246.46Z" transform="translate(-1.24 -33.18)"/><path id="path3191" class="cls-6" d="M167.3,233.29,199,126.06l73.84-13.18L241.13,220.11Z" transform="translate(-1.24 -33.18)"/><path id="path3193" class="cls-6" d="M315,206.93,346.62,99.7l73.83-13.17L388.8,193.75Z" transform="translate(-1.24 -33.18)"/><path id="path3195" class="cls-6" d="M462.63,180.58,494.29,73.35l73.83-13.18L536.47,167.4Z" transform="translate(-1.24 -33.18)"/><g class="cls-7"><path id="path3197" class="cls-6" d="M610.3,154.22,642,47l73.83-13.17L684.14,141.05Z" transform="translate(-1.24 -33.18)"/></g></g></g><path id="text3207" class="cls-8" d="M39.71,364.46V336.77h6.85a11.23,11.23,0,0,1,2.76.26,4.59,4.59,0,0,1,2.25,1.3A6.74,6.74,0,0,1,53,341a12.24,12.24,0,0,1,.55,3.78,11.43,11.43,0,0,1-1.47,6q-1.47,2.44-5.33,2.44H42.11v11.26Zm2.4-14.52h4.7a3.87,3.87,0,0,0,3.31-1.33,6.17,6.17,0,0,0,1-3.72,7,7,0,0,0-.58-3A3,3,0,0,0,49,340.28a7,7,0,0,0-2.24-.24H42.11ZM56.7,364.46V336.77h8a7.51,7.51,0,0,1,3.7.74,5.18,5.18,0,0,1,2,2.64,11.21,11.21,0,0,1,.75,4.17,9.28,9.28,0,0,1-1.25,5,5.66,5.66,0,0,1-3.87,2.57,6.69,6.69,0,0,1,1.45,1.38,19,19,0,0,1,2,3.69l3.16,7.53h-3l-2.4-5.76c-.7-1.66-1.28-2.93-1.73-3.81A7.75,7.75,0,0,0,64.32,353a3.12,3.12,0,0,0-1.09-.73,4.66,4.66,0,0,0-1.34-.14H59.1v12.3ZM59.1,349h5.17a5.29,5.29,0,0,0,2.58-.52,3.29,3.29,0,0,0,1.41-1.66,6.35,6.35,0,0,0,.48-2.49,5.33,5.33,0,0,0-.93-3.23,3.45,3.45,0,0,0-3-1.26H59.1Zm15.17,2q0-6.89,2.43-10.79t6.27-3.9a6.56,6.56,0,0,1,4.53,1.83,11.38,11.38,0,0,1,3.08,5.11,26.36,26.36,0,0,1,0,15,11,11,0,0,1-3.16,5A6.77,6.77,0,0,1,83,364.94a6.55,6.55,0,0,1-4.59-1.89,11.73,11.73,0,0,1-3.06-5.16,22.77,22.77,0,0,1-1-6.92Zm2.48.06a15.12,15.12,0,0,0,1.76,7.89q1.77,2.88,4.43,2.88t4.47-2.91q1.75-2.91,1.75-8.26a20.79,20.79,0,0,0-.75-5.9,8.82,8.82,0,0,0-2.19-3.91A4.54,4.54,0,0,0,83,339.43a5.28,5.28,0,0,0-4.39,2.67c-1.23,1.79-1.84,4.76-1.84,8.93Zm18,13.43V336.77H101a10.27,10.27,0,0,1,3.23.39,5.71,5.71,0,0,1,2.66,2,12.39,12.39,0,0,1,2.15,4.73,27.27,27.27,0,0,1,.72,6.58,28.39,28.39,0,0,1-.49,5.6,17.05,17.05,0,0,1-1.24,4,9.1,9.1,0,0,1-1.65,2.51A5.78,5.78,0,0,1,104.2,364a8.21,8.21,0,0,1-2.92.47Zm2.4-3.26H101a6.25,6.25,0,0,0,2.82-.52,4.11,4.11,0,0,0,1.63-1.43,10.51,10.51,0,0,0,1.33-3.51,25.33,25.33,0,0,0,.48-5.33,18.48,18.48,0,0,0-.94-6.68,6.11,6.11,0,0,0-2.27-3.13A6.39,6.39,0,0,0,101,340H97.13ZM125,336.77h2.4v16a27.86,27.86,0,0,1-.62,6.63,8.08,8.08,0,0,1-2.23,4,6,6,0,0,1-4.25,1.54,6.3,6.3,0,0,1-4.17-1.35,7.28,7.28,0,0,1-2.32-3.88,27.59,27.59,0,0,1-.69-6.94v-16h2.4v16a23.47,23.47,0,0,0,.44,5.32,5,5,0,0,0,1.51,2.63,3.87,3.87,0,0,0,2.62.93,4.08,4.08,0,0,0,3.78-1.83Q125,358,125,352.75Zm19.38,18,2.4.93a14.35,14.35,0,0,1-2.72,6.88,6,6,0,0,1-4.8,2.38,6.45,6.45,0,0,1-4.77-1.83,11.7,11.7,0,0,1-2.81-5.28,27.62,27.62,0,0,1-1-7.42,23.77,23.77,0,0,1,1.09-7.55,10.55,10.55,0,0,1,3.08-4.89,6.71,6.71,0,0,1,4.41-1.67,5.84,5.84,0,0,1,4.58,2.11,12.32,12.32,0,0,1,2.59,5.95l-2.36.85a9.69,9.69,0,0,0-1.84-4.4,3.84,3.84,0,0,0-3-1.38,4.56,4.56,0,0,0-3.5,1.53,8.7,8.7,0,0,0-2,4.11,24.57,24.57,0,0,0-.57,5.32,25.08,25.08,0,0,0,.68,6.17,7.87,7.87,0,0,0,2.1,3.94,4.49,4.49,0,0,0,3.08,1.3,4.2,4.2,0,0,0,3.42-1.78,10.89,10.89,0,0,0,1.9-5.27Zm10,9.71V340h-6v-3.27h14.39V340h-6v24.42Zm11.3,0V336.77h2.41v27.69Zm5.9-13.49q0-6.89,2.43-10.79t6.27-3.9a6.6,6.6,0,0,1,4.54,1.83,11.45,11.45,0,0,1,3.07,5.11,26.36,26.36,0,0,1,0,15,10.88,10.88,0,0,1-3.16,5,6.74,6.74,0,0,1-4.41,1.71,6.55,6.55,0,0,1-4.59-1.89,11.92,11.92,0,0,1-3.06-5.16,22.77,22.77,0,0,1-1-6.92Zm2.48.06a15.12,15.12,0,0,0,1.76,7.89q1.77,2.88,4.43,2.88t4.47-2.91q1.75-2.91,1.76-8.26a20.79,20.79,0,0,0-.75-5.9,8.83,8.83,0,0,0-2.2-3.91,4.54,4.54,0,0,0-3.24-1.39,5.29,5.29,0,0,0-4.39,2.67c-1.23,1.79-1.84,4.76-1.84,8.93ZM192,364.46V336.77h2.47L204,358.51V336.77h2.31v27.69h-2.47l-9.54-21.76v21.76Z" transform="translate(-1.24 -33.18)"/><path id="text3219" class="cls-8" d="M45.71,613.46V585.77H52a10.27,10.27,0,0,1,3.23.39,5.71,5.71,0,0,1,2.66,2A12.39,12.39,0,0,1,60,592.88a27.27,27.27,0,0,1,.72,6.58,28.39,28.39,0,0,1-.49,5.6,17.05,17.05,0,0,1-1.24,4,9.1,9.1,0,0,1-1.65,2.51A5.78,5.78,0,0,1,55.18,613a8.21,8.21,0,0,1-2.92.47Zm2.4-3.27H52a6.4,6.4,0,0,0,2.82-.51,4.11,4.11,0,0,0,1.63-1.43,10.51,10.51,0,0,0,1.33-3.51,25.33,25.33,0,0,0,.48-5.33,18.48,18.48,0,0,0-.94-6.68A6.11,6.11,0,0,0,55,589.6a6.39,6.39,0,0,0-3.11-.56H48.11Zm13.94,3.27,7-27.69h2.59l7.43,27.69H76.32l-2.12-8.39H66.6l-2,8.39Zm5.25-11.37h6.15l-1.89-7.67q-.87-3.49-1.29-5.74a50.69,50.69,0,0,1-1,5.29Zm18.32,11.37V589h-6v-3.27H94V589H88v24.42Zm10.94,0V585.77H109.7V589H99v8.48h10v3.25H99v9.42h11.15v3.27Z" transform="translate(-1.24 -33.18)"/><path id="text3223" class="cls-8" d="M58.67,553.75l2.4.93a14.35,14.35,0,0,1-2.72,6.88,6,6,0,0,1-4.8,2.38,6.45,6.45,0,0,1-4.77-1.83A11.7,11.7,0,0,1,46,556.83a27.62,27.62,0,0,1-1-7.42,23.77,23.77,0,0,1,1.09-7.55A10.55,10.55,0,0,1,49.18,537a6.71,6.71,0,0,1,4.41-1.67,5.84,5.84,0,0,1,4.58,2.11,12.32,12.32,0,0,1,2.59,6l-2.36.85a9.8,9.8,0,0,0-1.84-4.4,3.84,3.84,0,0,0-3-1.38A4.56,4.56,0,0,0,50,540a8.7,8.7,0,0,0-2,4.11,24.57,24.57,0,0,0-.57,5.32,25.08,25.08,0,0,0,.68,6.17,7.87,7.87,0,0,0,2.1,3.94,4.49,4.49,0,0,0,3.08,1.3A4.2,4.2,0,0,0,56.77,559a10.89,10.89,0,0,0,1.9-5.27Zm3.38,9.71,7-27.69h2.59l7.43,27.69H76.32l-2.12-8.38H66.6l-2,8.38Zm5.25-11.37h6.15l-1.89-7.67q-.87-3.49-1.29-5.74a50.69,50.69,0,0,1-1,5.29Zm13.63,11.37V535.77h3.61l4.3,19.61c.4,1.82.69,3.19.87,4.1.21-1,.53-2.49,1-4.44L95,535.77h3.23v27.69H96V540.28l-5.28,23.18H88.5l-5.26-23.57v23.57Zm21.29,0V535.77h13.13V539H104.62v8.48h10v3.25h-10v9.43h11.15v3.26Zm16.94,0V535.77h8a7.44,7.44,0,0,1,3.69.74,5.08,5.08,0,0,1,2,2.64,11,11,0,0,1,.76,4.17,9.28,9.28,0,0,1-1.25,5,5.68,5.68,0,0,1-3.87,2.57,6.69,6.69,0,0,1,1.45,1.38,19.54,19.54,0,0,1,2,3.69l3.16,7.53h-3l-2.4-5.76q-1.05-2.49-1.74-3.81a7.49,7.49,0,0,0-1.22-1.86,3.21,3.21,0,0,0-1.09-.73,4.71,4.71,0,0,0-1.34-.14h-2.79v12.3Zm2.4-15.47h5.17a5.24,5.24,0,0,0,2.57-.52,3.35,3.35,0,0,0,1.42-1.66,6.35,6.35,0,0,0,.48-2.49,5.26,5.26,0,0,0-.94-3.23,3.42,3.42,0,0,0-2.95-1.26h-5.75Zm13.9,15.47,7-27.69H145l7.43,27.69h-2.73l-2.12-8.38H140l-2,8.38Zm5.24-11.37h6.16L145,544.42q-.87-3.49-1.29-5.74a50.69,50.69,0,0,1-1,5.29Z" transform="translate(-1.24 -33.18)"/><path id="text3227" class="cls-8" d="M45.71,513.46V485.77H52a10.27,10.27,0,0,1,3.23.39,5.71,5.71,0,0,1,2.66,2A12.39,12.39,0,0,1,60,492.88a27.27,27.27,0,0,1,.72,6.58,28.39,28.39,0,0,1-.49,5.6,17.05,17.05,0,0,1-1.24,4,9.1,9.1,0,0,1-1.65,2.51A5.78,5.78,0,0,1,55.18,513a8.21,8.21,0,0,1-2.92.47Zm2.4-3.26H52a6.4,6.4,0,0,0,2.82-.51,4.13,4.13,0,0,0,1.63-1.44,10.51,10.51,0,0,0,1.33-3.51,25.33,25.33,0,0,0,.48-5.33,18.48,18.48,0,0,0-.94-6.68A6.11,6.11,0,0,0,55,489.6a6.39,6.39,0,0,0-3.11-.56H48.11Zm16.35,3.26V485.77h2.4v27.69Zm6.66,0V485.77h8.06a7.44,7.44,0,0,1,3.69.74,5.13,5.13,0,0,1,2,2.64,11,11,0,0,1,.76,4.17,9.28,9.28,0,0,1-1.25,5,5.68,5.68,0,0,1-3.87,2.57A6.69,6.69,0,0,1,82,502.24a19,19,0,0,1,2,3.69l3.16,7.53h-3l-2.4-5.76C81,506,80.43,504.77,80,503.89A7.49,7.49,0,0,0,78.75,502a3.15,3.15,0,0,0-1.1-.73,4.58,4.58,0,0,0-1.33-.14H73.53v12.3ZM73.53,498H78.7a5.27,5.27,0,0,0,2.57-.52,3.35,3.35,0,0,0,1.42-1.66,6.35,6.35,0,0,0,.48-2.49,5.26,5.26,0,0,0-.94-3.23,3.43,3.43,0,0,0-3-1.26H73.53Zm16,15.47V485.77h13.13V489H91.88v8.48h10.05v3.25H91.88v9.43H103v3.26Zm29.86-9.71,2.41.93a14.45,14.45,0,0,1-2.73,6.88,6,6,0,0,1-4.8,2.38,6.47,6.47,0,0,1-4.77-1.83,11.6,11.6,0,0,1-2.8-5.28,27.62,27.62,0,0,1-1-7.42,23.78,23.78,0,0,1,1.08-7.55,10.48,10.48,0,0,1,3.09-4.89,6.67,6.67,0,0,1,4.4-1.67,5.87,5.87,0,0,1,4.59,2.11,12.51,12.51,0,0,1,2.59,5.95l-2.37.85a9.69,9.69,0,0,0-1.84-4.4,3.82,3.82,0,0,0-3-1.38,4.56,4.56,0,0,0-3.5,1.53,8.7,8.7,0,0,0-2,4.11,24.57,24.57,0,0,0-.57,5.32,25.08,25.08,0,0,0,.68,6.17,7.87,7.87,0,0,0,2.1,3.94,4.49,4.49,0,0,0,3.08,1.3,4.23,4.23,0,0,0,3.43-1.78,11,11,0,0,0,1.89-5.27Zm10,9.71V489h-6v-3.27h14.4V489h-6v24.42ZM139.5,500q0-6.89,2.43-10.79t6.27-3.9a6.6,6.6,0,0,1,4.54,1.83,11.56,11.56,0,0,1,3.08,5.11,24.28,24.28,0,0,1,1.06,7.43,23.76,23.76,0,0,1-1.12,7.54,10.88,10.88,0,0,1-3.16,5,6.74,6.74,0,0,1-4.41,1.71,6.55,6.55,0,0,1-4.59-1.89,11.92,11.92,0,0,1-3.06-5.16,22.77,22.77,0,0,1-1-6.92ZM142,500a15,15,0,0,0,1.77,7.89q1.75,2.88,4.43,2.88t4.46-2.91q1.76-2.91,1.76-8.26a20.79,20.79,0,0,0-.75-5.9,8.73,8.73,0,0,0-2.2-3.91,4.54,4.54,0,0,0-3.24-1.39,5.29,5.29,0,0,0-4.39,2.67c-1.23,1.79-1.84,4.76-1.84,8.93Zm18,13.43V485.77h8.05a7.51,7.51,0,0,1,3.7.74,5.18,5.18,0,0,1,2,2.64,11.21,11.21,0,0,1,.75,4.17,9.28,9.28,0,0,1-1.25,5,5.64,5.64,0,0,1-3.87,2.57,6.69,6.69,0,0,1,1.45,1.38,19,19,0,0,1,2,3.69l3.16,7.53h-3l-2.41-5.76c-.7-1.66-1.28-2.93-1.73-3.81a7.78,7.78,0,0,0-1.22-1.86,3.24,3.24,0,0,0-1.1-.73,4.66,4.66,0,0,0-1.34-.14H162.4v12.3ZM162.4,498h5.17a5.29,5.29,0,0,0,2.58-.52,3.29,3.29,0,0,0,1.41-1.66,6.35,6.35,0,0,0,.48-2.49,5.33,5.33,0,0,0-.93-3.23,3.45,3.45,0,0,0-3-1.26H162.4Z" transform="translate(-1.24 -33.18)"/><path id="path3231" class="cls-9" d="M18.75,376.46h675" transform="translate(-1.24 -33.18)"/><path id="path3233" class="cls-9" d="M18.75,476.46h675" transform="translate(-1.24 -33.18)"/><path id="path3235" class="cls-9" d="M368.75,376.46v100h0" transform="translate(-1.24 -33.18)"/><path id="path3237" class="cls-9" d="M18.75,526.46h675" transform="translate(-1.24 -33.18)"/><path id="path3239" class="cls-9" d="M18.75,576.46h675" transform="translate(-1.24 -33.18)"/><path id="path3243" class="cls-10" d="M18.75,284.46h150l-150-150Z" transform="translate(-1.24 -33.18)"/><path id="path3245" class="cls-11" d="M59.05,273.55c0,11.13-7.93,20.16-17.72,20.16s-17.73-9-17.73-20.16,7.94-20.15,17.73-20.15S59.05,262.43,59.05,273.55Z" transform="translate(-1.24 -33.18)"/><path id="path3255" class="cls-12" d="M153.1,274.52c0,11.13-7.93,20.16-17.72,20.16s-17.73-9-17.73-20.16,7.93-20.15,17.73-20.15S153.1,263.39,153.1,274.52Z" transform="translate(-1.24 -33.18)"/><path id="path3259" class="cls-13" d="M60,177.57c0,11.13-7.93,20.15-17.72,20.15s-17.73-9-17.73-20.15,7.94-20.16,17.73-20.16S60,166.44,60,177.57Z" transform="translate(-1.24 -33.18)"/><path id="text3211" class="cls-8" d="M45.71,403.57l2.27-.31a10.14,10.14,0,0,0,.75,3.41,5,5,0,0,0,1.82,2.16,5,5,0,0,0,2.79.82,4.63,4.63,0,0,0,2.43-.63,3.85,3.85,0,0,0,1.57-1.7,5.56,5.56,0,0,0,.51-2.38,5,5,0,0,0-.49-2.27A4,4,0,0,0,55.72,401a23.88,23.88,0,0,0-3.23-1.35A12.81,12.81,0,0,1,49,398,6.39,6.39,0,0,1,47,395.38a9.06,9.06,0,0,1-.64-3.45,9.83,9.83,0,0,1,.78-3.92,5.89,5.89,0,0,1,2.28-2.77,6.13,6.13,0,0,1,3.34-.94,6.46,6.46,0,0,1,3.56,1,6.26,6.26,0,0,1,2.37,2.92,11.52,11.52,0,0,1,.89,4.36l-2.3.26a7,7,0,0,0-1.26-4,3.78,3.78,0,0,0-3.16-1.34,3.87,3.87,0,0,0-3.18,1.21,4.5,4.5,0,0,0-1,2.94,4.05,4.05,0,0,0,.71,2.46c.46.64,1.67,1.3,3.62,2a18.42,18.42,0,0,1,4,1.77,6.65,6.65,0,0,1,2.34,2.82,9.58,9.58,0,0,1,.76,3.94,10.63,10.63,0,0,1-.83,4.17,6.84,6.84,0,0,1-2.39,3,6,6,0,0,1-3.5,1.09,7.37,7.37,0,0,1-4.13-1.1,7.2,7.2,0,0,1-2.61-3.3,12.8,12.8,0,0,1-1-5Zm30.73-.82,2.4.93a14.35,14.35,0,0,1-2.72,6.88,6,6,0,0,1-4.8,2.38,6.45,6.45,0,0,1-4.77-1.83,11.7,11.7,0,0,1-2.81-5.28,27.62,27.62,0,0,1-1-7.42,23.77,23.77,0,0,1,1.09-7.55A10.55,10.55,0,0,1,67,386a6.71,6.71,0,0,1,4.41-1.67,5.84,5.84,0,0,1,4.58,2.11,12.32,12.32,0,0,1,2.59,5.95l-2.36.85a9.8,9.8,0,0,0-1.84-4.4,3.84,3.84,0,0,0-3-1.38,4.56,4.56,0,0,0-3.5,1.53,8.7,8.7,0,0,0-2,4.11,24.57,24.57,0,0,0-.57,5.32,25.08,25.08,0,0,0,.68,6.17A7.87,7.87,0,0,0,68,408.5a4.53,4.53,0,0,0,3.08,1.3A4.2,4.2,0,0,0,74.54,408a10.89,10.89,0,0,0,1.9-5.27Zm5.43,9.71V384.77H95V388H84.27v8.48h10v3.25h-10v9.42H95.42v3.27Zm16.88,0V384.77h2.46l9.54,21.74V384.77h2.31v27.69h-2.47l-9.54-21.76v21.76Zm18.41,0V384.77H130.3V388H119.56v8.48h10.05v3.25H119.56v9.42h11.16v3.27Z" transform="translate(-1.24 -33.18)"/><path id="text3215" class="cls-8" d="M400.67,412V387.56h-6V384.3h14.4v3.26h-6V412Zm8.9,0,7-27.69h2.59L426.57,412h-2.74l-2.12-8.39h-7.59l-2,8.39Zm5.24-11.37H421l-1.9-7.67q-.85-3.49-1.28-5.75a52.91,52.91,0,0,1-1,5.29ZM428.42,412V384.3h2.4V398l9-13.73h3.26l-7.62,11.22,8,16.47h-3.18l-6.46-14-3,4.42V412Zm17.1,0V384.3h13.13v3.26H447.92v8.49H458v3.25H447.92v9.42h11.16V412Z" transform="translate(-1.24 -33.18)"/></svg>